<?xml version="1.0" encoding="UTF-8"?>
<svg height="128px" viewBox="0 0 128 128" width="128px" xmlns="http://www.w3.org/2000/svg" xmlns:xlink="http://www.w3.org/1999/xlink">
    <linearGradient id="a" gradientUnits="userSpaceOnUse">
        <stop offset="0" stop-color="#4c4c4c"/>
        <stop offset="0.5" stop-color="#77767b"/>
        <stop offset="1" stop-color="#4c4c4c"/>
    </linearGradient>
    <linearGradient id="b" x1="35.494667" x2="72.000031" xlink:href="#a" y1="72.014442" y2="43.495239"/>
    <linearGradient id="c" gradientUnits="userSpaceOnUse">
        <stop offset="0" stop-color="#3584e4"/>
        <stop offset="0.5" stop-color="#77767b"/>
        <stop offset="1" stop-color="#4c4c4c"/>
    </linearGradient>
    <linearGradient id="d" x1="50.000267" x2="35.494667" xlink:href="#c" y1="116.999763" y2="72.014442"/>
    <linearGradient id="e" x1="50.000267" x2="94.000427" xlink:href="#c" y1="116.999763" y2="116.999763"/>
    <linearGradient id="f" x1="94.000427" x2="108.504791" xlink:href="#a" y1="116.999763" y2="72.014442"/>
    <linearGradient id="g" x1="72.000031" x2="108.504791" xlink:href="#a" y1="43.495239" y2="72.014442"/>
    <clipPath id="h">
        <path d="m 27 86 h 30 v 30 h -30 z m 0 0"/>
    </clipPath>
    <clipPath id="i">
        <path d="m 57 101 c 0 8.285156 -6.714844 15 -15 15 s -15 -6.714844 -15 -15 s 6.714844 -15 15 -15 s 15 6.714844 15 15 z m 0 0"/>
    </clipPath>
    <g fill="none" stroke-width="6">
        <path d="m 72 43.496094 l -36.503906 28.519531" stroke="url(#b)" transform="matrix(1 0 0 1 -8 -16)"/>
        <path d="m 50 117 l -14.503906 -44.984375" stroke="url(#d)" transform="matrix(1 0 0 1 -8 -16)"/>
        <path d="m 94 117 h -44" stroke="url(#e)" transform="matrix(1 0 0 1 -8 -16)"/>
        <path d="m 108.503906 72.015625 l -14.503906 44.984375" stroke="url(#f)" transform="matrix(1 0 0 1 -8 -16)"/>
        <path d="m 72 43.496094 l 36.503906 28.519531" stroke="url(#g)" transform="matrix(1 0 0 1 -8 -16)"/>
    </g>
    <g clip-path="url(#h)">
        <g clip-path="url(#i)">
            <path d="m 42 273 c 0 8.285156 -6.714844 15 -15 15 s -15 -6.714844 -15 -15 s 6.714844 -15 15 -15 s 15 6.714844 15 15 z m 0 0" fill="#3584e4" stroke="#62a0ea" stroke-width="6" transform="matrix(1 0 0 1 15 -172)"/>
        </g>
    </g>
    <path d="m 101 101 c 0 8.285156 -6.714844 15 -15 15 s -15 -6.714844 -15 -15 s 6.714844 -15 15 -15 s 15 6.714844 15 15 z m 0 0" fill="#9a9996"/>
    <path d="m 79 27.496094 c 0 8.285156 -6.714844 15 -15 15 s -15 -6.714844 -15 -15 s 6.714844 -15 15 -15 s 15 6.714844 15 15 z m 0 0" fill="#9a9996"/>
    <path d="m 115.503906 56.015625 c 0 8.28125 -6.714844 15 -15 15 s -15 -6.71875 -15 -15 c 0 -8.285156 6.714844 -15 15 -15 s 15 6.714844 15 15 z m 0 0" fill="#9a9996"/>
    <path d="m 42.496094 56.015625 c 0 8.28125 -6.71875 15 -15 15 c -8.285156 0 -15 -6.71875 -15 -15 c 0 -8.285156 6.714844 -15 15 -15 c 8.28125 0 15 6.714844 15 15 z m 0 0" fill="#9a9996"/>
</svg>
